#!OML:ASF E:\motion texture\Top Level 1\Subject 1\Session 1\male.ASF
:FULLY-SPECIFIED
:DEGREES
332
root 10.7267 17.75 4.87025 12.0785 -72.7255 -6.90942
lowerback -0.370903 -1.13955 -3.42359
upperback -2.33573 -1.60314 -1.26975
thorax -2.13395 -0.761021 0.63735
lowerneck -13.0993 -9.02745 -11.5127
upperneck 14.3317 -11.2996 7.26148
head 7.63903 -5.4513 2.96574
rclavicle -2.52891e-014 1.59028e-015
rhumerus -1.29716 -12.9048 -31.4685
rradius 29.6312
rwrist 27.6887
rhand -20.1804 -35.4682
rfingers 7.12502
rthumb 6.16567 -65.3585
lclavicle -2.52891e-014 1.59028e-015
lhumerus -40.5997 25.1793 63.0802
lradius 36.837
lwrist -21.9081
lhand -15.6996 21.6358
lfingers 7.12502
lthumb 10.4899 51.354
rfemur -32.7252 -9.42241 17.7714
rtibia 26.5198
rfoot -2.15601 -19.2515
rtoes 9.79568
lfemur 0.381285 -5.0283 -17.3787
ltibia 13.668
lfoot -14.3527 -6.52193
ltoes -1.14691
333
root 10.5951 17.7393 4.87132 12.1217 -73.1012 -6.84329
lowerback -0.438085 -1.15884 -3.40976
upperback -2.38529 -1.62633 -1.20624
thorax -2.14491 -0.771745 0.69412
lowerneck -13.1881 -8.95901 -11.4088
upperneck 14.4199 -11.217 7.22687
head 7.66691 -5.40756 2.94554
rclavicle 2.054e-014 -1.43125e-014
rhumerus -0.748792 -11.4852 -31.812
rradius 30.8244
rwrist 27.303
rhand -20.39 -35.2968
rfingers 7.12502
rthumb 5.96334 -65.1929
lclavicle 2.054e-014 -1.43125e-014
lhumerus -40.9955 25.5446 62.6637
lradius 36.3347
lwrist -22.4975
lhand -15.5889 21.7263
lfingers 7.12502
lthumb 10.5967 51.4391
rfemur -32.6919 -8.89429 17.6638
rtibia 25.3958
rfoot -2.08825 -19.2255
rtoes 9.75051
lfemur 0.766576 -4.99032 -17.403
ltibia 13.7013
lfoot -14.4907 -6.26474
ltoes -1.66512
334
root 10.4626 17.729 4.87164 12.2032 -73.4943 -6.81957
lowerback -0.515836 -1.17144 -3.38993
upperback -2.4365 -1.64006 -1.13794
thorax -2.15196 -0.777861 0.752103
lowerneck -13.2462 -8.89616 -11.3097
upperneck 14.4952 -11.1469 7.20709
head 7.68775 -5.36969 2.93051
rclavicle -2.1711e-015 7.95139e-016
rhumerus -0.175618 -10.0165 -32.1668
rradius 32.0731
rwrist 26.9529
rhand -20.6027 -35.0923
rfingers 7.12502
rthumb 5.75797 -64.994
lclavicle -2.1711e-015 7.95139e-016
lhumerus -41.3872 25.9067 62.2601
lradius 35.7942
lwrist -23.1265
lhand -15.4544 21.8076
lfingers 7.12502
lthumb 10.7265 51.5137
rfemur -32.6542 -8.36895 17.5825
rtibia 24.3644
rfoot -2.00721 -19.1839
rtoes 9.73491
lfemur 1.13528 -4.96081 -17.423
ltibia 13.7758
lfoot -14.6125 -5.98669
ltoes -2.23675
335
root 10.3288 17.7192 4.87113 12.3256 -73.8997 -6.84175
lowerback -0.592633 -1.18145 -3.35932
upperback -2.48984 -1.65035 -1.06584
thorax -2.16201 -0.782369 0.807952
lowerneck -13.3 -8.83888 -11.2157
upperneck 14.5719 -11.0869 7.20063
head 7.71048 -5.33587 2.91943
rclavicle -5.38893e-014 -2.54444e-014
rhumerus 0.429954 -8.50215 -32.5369
rradius 33.3704
rwrist 26.6411
rhand -20.8137 -34.864
rfingers 7.12502
rthumb 5.55424 -64.7712
lclavicle -5.38893e-014 -2.54444e-014
lhumerus -41.7752 26.2734 61.8653
lradius 35.221
lwrist -23.792
lhand -15.2969 21.8872
lfingers 7.12502
lthumb 10.8784 51.5854
rfemur -32.6096 -7.85051 17.5289
rtibia 23.4248
rfoot -1.91409 -19.126
rtoes 9.74869
lfemur 1.48466 -4.94004 -17.4366
ltibia 13.8965
lfoot -14.7161 -5.6937
ltoes -2.86216
336
root 10.194 17.71 4.86977 12.4947 -74.3162 -6.91542
lowerback -0.670989 -1.18876 -3.31915
upperback -2.54326 -1.65685 -0.988309
thorax -2.17148 -0.785118 0.863952
lowerneck -13.3511 -8.78767 -11.1298
upperneck 14.6475 -11.0369 7.20935
head 7.73482 -5.30604 2.91334
rclavicle -2.92959e-014 1.74931e-014
rhumerus 1.06905 -6.9441 -32.9148
rradius 34.7102
rwrist 26.3725
rhand -21.0218 -34.6085
rfingers 7.12502
rthumb 5.3533 -64.5209
lclavicle -2.92959e-014 1.74931e-014
lhumerus -42.1559 26.6473 61.4829
lradius 34.6183
lwrist -24.4875
lhand -15.1221 21.958
lfingers 7.12502
lthumb 11.047 51.6472
rfemur -32.5593 -7.34152 17.5051
rtibia 22.5779
rfoot -1.80782 -19.0487
rtoes 9.80132
lfemur 1.81093 -4.92474 -17.442
ltibia 14.0674
lfoot -14.7977 -5.39068
ltoes -3.5438
337
root 10.0579 17.7016 4.86752 12.7122 -74.7407 -7.04378
lowerback -0.744584 -1.19302 -3.26845
upperback -2.60069 -1.65958 -0.907082
thorax -2.18808 -0.786036 0.917995
lowerneck -13.3929 -8.74225 -11.0489
upperneck 14.7237 -10.9977 7.2305
head 7.75983 -5.2808 2.91098
rclavicle -2.24316e-014 -1.11319e-014
rhumerus 1.73328 -5.34353 -33.2976
rradius 36.0886
rwrist 26.1517
rhand -21.219 -34.3299
rfingers 7.12502
rthumb 5.16291 -64.247
lclavicle -2.24316e-014 -1.11319e-014
lhumerus -42.5342 27.02 61.1107
lradius 33.9913
lwrist -25.2071
lhand -14.9288 22.0146
lfingers 7.12502
lthumb 11.2334 51.6939
rfemur -32.5007 -6.84546 17.5121
rtibia 21.8231
rfoot -1.69097 -18.9498
rtoes 9.89786
lfemur 2.11276 -4.91356 -17.4381
ltibia 14.2923
lfoot -14.8549 -5.08324
ltoes -4.2763
338
root 9.92056 17.694 4.86439 12.9892 -75.1733 -7.23782
lowerback -0.817019 -1.194 -3.20574
upperback -2.66116 -1.65802 -0.821692
thorax -2.20881 -0.784961 0.969629
lowerneck -13.4197 -8.70208 -10.9746
upperneck 14.7954 -10.9687 7.26591
head 7.78306 -5.26001 2.91354
rclavicle 4.79024e-015 1.03368e-014
rhumerus 2.42162 -3.69362 -33.6798
rradius 37.5029
rwrist 25.973
rhand -21.4086 -34.0359
rfingers 7.12502
rthumb 4.97985 -63.9574
lclavicle 4.79024e-015 1.03368e-014
lhumerus -42.9094 27.3912 60.7507
lradius 33.3453
lwrist -25.9443
lhand -14.72 22.0616
lfingers 7.12502
lthumb 11.4348 51.7297
rfemur -32.4339 -6.3631 17.553
rtibia 21.1577
rfoot -1.55946 -18.8251
rtoes 10.0263
lfemur 2.38707 -4.9041 -17.4228
ltibia 14.5741
lfoot -14.8836 -4.77444
ltoes -5.05641
339
root 9.78204 17.6874 4.8603 13.3305 -75.6075 -7.50225
lowerback -0.891538 -1.19313 -3.13116
upperback -2.71739 -1.65367 -0.731562
thorax -2.22427 -0.782794 1.01938
lowerneck -13.4523 -8.66917 -10.9065
upperneck 14.8673 -10.9507 7.31493
head 7.80957 -5.24336 2.91986
rclavicle 3.73529e-014 2.22639e-014
rhumerus 3.13984 -2.00809 -34.0586
rradius 38.9531
rwrist 25.8299
rhand -21.5843 -33.7459
rfingers 7.12502
rthumb 4.81013 -63.6713
lclavicle 3.73529e-014 2.22639e-014
lhumerus -43.2664 27.7687 60.41
lradius 32.6826
lwrist -26.6975
lhand -14.4988 22.0949
lfingers 7.12502
lthumb 11.6481 51.7512
rfemur -32.3585 -5.89712 17.6277
rtibia 20.5811
rfoot -1.41586 -18.6764
rtoes 10.1891
lfemur 2.62919 -4.89548 -17.3931
ltibia 14.917
lfoot -14.8801 -4.47153
ltoes -5.88235
340
root 9.64227 17.6817 4.85531 13.7425 -76.0438 -7.84412
lowerback -0.962275 -1.18912 -3.04398
upperback -2.77533 -1.64533 -0.637787
thorax -2.244 -0.77882 1.06591
lowerneck -13.4781 -8.64207 -10.8437
upperneck 14.9381 -10.9429 7.37637
head 7.83661 -5.23101 2.92996
rclavicle 6.0179e-015 7.95139e-016
rhumerus 3.87726 -0.278366 -34.4281
rradius 40.4344
rwrist 25.7307
rhand -21.7552 -33.4348
rfingers 7.12502
rthumb 4.64513 -63.3639
lclavicle 6.0179e-015 7.95139e-016
lhumerus -43.6142 28.143 60.086
lradius 32.009
lwrist -27.4603
lhand -14.265 22.1071
lfingers 7.12502
lthumb 11.8736 51.7504
rfemur -32.2733 -5.44917 17.7372
rtibia 20.0915
rfoot -1.26521 -18.5039
rtoes 10.3959
lfemur 2.83827 -4.88511 -17.3488
ltibia 15.3221
lfoot -14.8396 -4.17814
ltoes -6.75073
341
root 9.50132 17.6772 4.84937 14.237 -76.4787 -8.27448
lowerback -1.03341 -1.18346 -2.94336
upperback -2.83204 -1.6347 -0.5391
thorax -2.26254 -0.773993 1.10994
lowerneck -13.4991 -8.62047 -10.7893
upperneck 15.0059 -10.9443 7.45178
head 7.86402 -5.22237 2.94495
rclavicle -5.09386e-016 8.74653e-015
rhumerus 4.64087 1.48922 -34.787
rradius 41.9423
rwrist 25.6683
rhand -21.9211 -33.1124
rfingers 7.12502
rthumb 4.48497 -63.0449
lclavicle -5.09386e-016 8.74653e-015
lhumerus -43.9493 28.5182 59.782
lradius 31.3303
lwrist -28.2265
lhand -14.0223 22.1037
lfingers 7.12502
lthumb 12.1076 51.7334
rfemur -32.1782 -5.01962 17.8823
rtibia 19.6858
rfoot -1.11073 -18.3088
rtoes 10.6398
lfemur 3.00989 -4.87263 -17.287
ltibia 15.7921
lfoot -14.7575 -3.89722
ltoes -7.65699
342
root 9.35918 17.6737 4.84252 14.8252 -76.9106 -8.80505
lowerback -1.10163 -1.17527 -2.82723
upperback -2.88806 -1.62078 -0.436751
thorax -2.28244 -0.76785 1.14911
lowerneck -13.5179 -8.6055 -10.7394
upperneck 15.0717 -10.9566 7.5388
head 7.89245 -5.21816 2.96312
rclavicle -1.16662e-014 5.56597e-015
rhumerus 5.42688 3.29447 -35.1324
rradius 43.4753
rwrist 25.6427
rhand -22.0738 -32.7745
rfingers 7.12502
rthumb 4.33754 -62.7101
lclavicle -1.16662e-014 5.56597e-015
lhumerus -44.2693 28.8933 59.4985
lradius 30.6499
lwrist -28.9946
lhand -13.7748 22.0891
lfingers 7.12502
lthumb 12.3462 51.7046
rfemur -32.0721 -4.6103 18.0647
rtibia 19.3604
rfoot -0.956084 -18.0896
rtoes 10.9203
lfemur 3.14268 -4.85556 -17.2055
ltibia 16.3289
lfoot -14.6299 -3.63301
ltoes -8.59438
343
root 9.21592 17.6713 4.83478 15.5141 -77.3361 -9.44278
lowerback -1.16181 -1.16519 -2.6939
upperback -2.94742 -1.6048 -0.331899
thorax -2.31072 -0.760976 1.18146
lowerneck -13.5294 -8.59549 -10.6943
upperneck 15.1364 -10.9781 7.63754
head 7.92113 -5.21782 2.98491
rclavicle -1.87976e-014 2.3059e-014
rhumerus 6.23091 5.14502 -35.4614
rradius 45.0326
rwrist 25.6451
rhand -22.2157 -32.4297
rfingers 7.12502
rthumb 4.2005 -62.368
lclavicle -1.87976e-014 2.3059e-014
lhumerus -44.5797 29.2537 59.2366
lradius 29.9768
lwrist -29.7494
lhand -13.522 22.0575
lfingers 7.12502
lthumb 12.5899 51.6581
rfemur -31.9532 -4.22317 18.2831
rtibia 19.1101
rfoot -0.806119 -17.8487
rtoes 11.2397
lfemur 3.2339 -4.83279 -17.1033
ltibia 16.9343
lfoot -14.4528 -3.38904
ltoes -9.55699
344
root 9.0716 17.6701 4.82617 16.3178 -77.7542 -10.2018
lowerback -1.22351 -1.15273 -2.54457
upperback -3.00276 -1.58549 -0.223094
thorax -2.33442 -0.752901 1.20882
lowerneck -13.5366 -8.59142 -10.6549
upperneck 15.1938 -11.0092 7.74846
head 7.94871 -5.22139 3.01053
rclavicle -1.72818e-014 1.11319e-014
rhumerus 7.06139 7.03166 -35.7679
rradius 46.6093
rwrist 25.673
rhand -22.3471 -32.08
rfingers 7.12502
rthumb 4.07361 -62.0208
lclavicle -1.72818e-014 1.11319e-014
lhumerus -44.8689 29.6121 59.0031
lradius 29.3128
lwrist -30.4982
lhand -13.2686 22.0196
lfingers 7.12502
lthumb 12.8343 51.6051
rfemur -31.8211 -3.85706 18.5378
rtibia 18.9312
rfoot -0.660691 -17.5853
rtoes 11.5886
lfemur 3.28141 -4.8027 -16.9784
ltibia 17.6101
lfoot -14.22 -3.16393
ltoes -10.5189
345
root 8.92629 17.67 4.8167 17.2492 -78.1619 -11.0954
lowerback -1.28264 -1.13822 -2.37752
upperback -3.05665 -1.56355 -0.110757
thorax -2.3585 -0.743974 1.22993
lowerneck -13.5368 -8.5925 -10.6196
upperneck 15.2451 -11.0491 7.86907
head 7.97477 -5.22869 3.0391
rclavicle -1.50642e-014 -1.43125e-014
rhumerus 7.91735 8.95715 -36.049
rradius 48.1965
rwrist 25.7389
rhand -22.4719 -31.6869
rfingers 7.12502
rthumb 3.95309 -61.63
lclavicle -1.50642e-014 -1.43125e-014
lhumerus -45.1397 29.963 58.798
lradius 28.6635
lwrist -31.2332
lhand -13.0052 21.9616
lfingers 7.12502
lthumb 13.0881 51.5309
rfemur -31.6736 -3.51159 18.8282
rtibia 18.8172
rfoot -0.521875 -17.3009
rtoes 11.9644
lfemur 3.28354 -4.76371 -16.8285
ltibia 18.3567
lfoot -13.9279 -2.96351
ltoes -11.4697
